<?xml version="1.0" ?><svg enable-background="new 0 0 32 32" version="1.1" viewBox="0 0 32 32" xml:space="preserve" xmlns="http://www.w3.org/2000/svg" xmlns:xlink="http://www.w3.org/1999/xlink"><g id="Flat_copy"><path d="M11.517,20.696c-1.434,0-2.601-1.166-2.601-2.6c0-1.433,1.167-2.599,2.601-2.599c1.433,0,2.599,1.166,2.599,2.599   C14.117,19.53,12.951,20.696,11.517,20.696z M30.331,18.884c0.039,0.297,0.059,0.59,0.059,0.875c0,5.406-6.468,9.804-14.417,9.804   S1.556,25.165,1.556,19.759c0-0.295,0.022-0.601,0.065-0.912C0.601,18.095,0,16.917,0,15.649c0-2.198,1.788-3.986,3.986-3.986   c0.858,0,1.691,0.279,2.377,0.79c2.471-1.503,5.623-2.379,8.935-2.483l2.54-7.217l6.086,1.455c0.574-1.086,1.694-1.771,2.939-1.771   c1.835,0,3.327,1.493,3.327,3.327c0,1.835-1.493,3.327-3.327,3.327c-1.725,0-3.151-1.324-3.312-3.009L19.067,5.01l-1.755,4.988   c3.077,0.194,5.996,1.063,8.301,2.472c0.69-0.523,1.532-0.808,2.401-0.808c2.198,0,3.986,1.788,3.986,3.986   C32,16.943,31.381,18.134,30.331,18.884z M1.91,15.649c0,0.399,0.118,0.787,0.332,1.119c0.525-1.113,1.348-2.163,2.417-3.084   c-0.215-0.074-0.441-0.112-0.673-0.112C2.841,13.572,1.91,14.504,1.91,15.649z M28.48,19.759c0-4.353-5.611-7.895-12.507-7.895   S3.466,15.406,3.466,19.759c0,4.353,5.611,7.894,12.507,7.894C22.87,27.653,28.48,24.112,28.48,19.759z M27.303,13.698   c1.076,0.931,1.901,1.992,2.423,3.118c0.235-0.342,0.364-0.747,0.364-1.167c0-1.145-0.931-2.077-2.076-2.077   C27.769,13.572,27.529,13.615,27.303,13.698z M25.445,5.764c0,0.781,0.636,1.417,1.417,1.417c0.782,0,1.417-0.636,1.417-1.417   c0-0.782-0.636-1.417-1.417-1.417C26.081,4.346,25.445,4.982,25.445,5.764z M20.773,22.73c-0.259,0-0.501,0.102-0.675,0.279   c-0.052,0.05-1.3,1.227-4.15,1.227c-2.815,0-3.95-1.176-3.953-1.18c-0.181-0.208-0.444-0.328-0.72-0.328   c-0.227,0-0.447,0.081-0.62,0.229c-0.194,0.166-0.312,0.397-0.332,0.652c-0.02,0.255,0.061,0.502,0.227,0.695   c0.044,0.052,0.461,0.523,1.342,0.973c1.13,0.577,2.495,0.869,4.057,0.869c1.552,0,2.933-0.287,4.107-0.854   c0.909-0.439,1.362-0.897,1.411-0.949c0.359-0.376,0.348-0.978-0.026-1.343C21.26,22.826,21.024,22.73,20.773,22.73z    M20.743,15.497c-1.434,0-2.601,1.166-2.601,2.599c0,1.434,1.167,2.6,2.601,2.6c1.433,0,2.599-1.166,2.599-2.6   C23.343,16.663,22.177,15.497,20.743,15.497z"/></g></svg>